<svg width="76" height="76" viewBox="0 0 76 76" fill="none" xmlns="http://www.w3.org/2000/svg">
<circle cx="38" cy="38" r="38" fill="#FF9292"/>
<g clip-path="url(#clip0_2_892)">
<path d="M26.0526 32.9691L24.417 31.3537L24.3906 27.3046C24.3881 26.9178 24.0738 26.606 23.6876 26.606C23.686 26.606 23.6845 26.606 23.6829 26.606C23.2945 26.6086 22.9819 26.9254 22.9844 27.3138L23.0127 31.654C23.0139 31.8404 23.0891 32.0188 23.2217 32.1497L25.0644 33.9695C25.2014 34.1049 25.3799 34.1725 25.5585 34.1725C25.7399 34.1725 25.9212 34.1027 26.0587 33.9634C26.3316 33.6872 26.3288 33.2419 26.0526 32.9691Z" fill="white"/>
<path d="M45.0003 38.3977C44.9997 38.3918 44.9984 38.3861 44.9976 38.3802C44.9951 38.3609 44.9921 38.3419 44.9879 38.3231C44.9864 38.3165 44.9846 38.31 44.9829 38.3034C44.9785 38.2857 44.9736 38.2682 44.9679 38.251C44.9655 38.2441 44.9629 38.2373 44.9604 38.2304C44.9543 38.214 44.9478 38.1979 44.9406 38.182C44.9373 38.1749 44.9338 38.1679 44.9304 38.1607C44.9229 38.1457 44.9149 38.1311 44.9065 38.1168C44.9023 38.1095 44.8979 38.1023 44.8934 38.0953C44.8845 38.0814 44.8751 38.068 44.8652 38.0548C44.8603 38.0481 44.8555 38.0414 44.8503 38.0348C44.8389 38.0206 44.8267 38.007 44.8142 37.9937C44.8099 37.9891 44.806 37.9842 44.8016 37.9797C44.7841 37.962 44.7658 37.9452 44.7464 37.9295C44.7462 37.9293 44.746 37.929 44.7457 37.9288L40.4598 34.4344C40.1587 34.1889 39.7159 34.2342 39.4706 34.535C39.2251 34.836 39.2702 35.2789 39.5712 35.5243L42.3262 37.7705H33.2186C32.8303 37.7705 32.5156 38.0853 32.5156 38.4737C32.5156 38.8621 32.8303 39.1768 33.2188 39.1768H42.3264L39.5713 41.4229C39.2704 41.6683 39.2253 42.1112 39.4707 42.4122C39.6097 42.5826 39.8121 42.671 40.0161 42.671C40.1723 42.671 40.3295 42.6193 40.4599 42.5128L44.7458 39.0185C44.7461 39.0184 44.7462 39.0181 44.7465 39.0179C44.7658 39.0021 44.7841 38.9853 44.8017 38.9676C44.8061 38.9631 44.81 38.9584 44.8143 38.9538C44.8268 38.9404 44.839 38.9269 44.8504 38.9125C44.8556 38.906 44.8603 38.8993 44.8652 38.8926C44.8751 38.8794 44.8845 38.866 44.8934 38.8521C44.8979 38.8451 44.9023 38.8379 44.9065 38.8307C44.9149 38.8163 44.9229 38.8017 44.9304 38.7868C44.9338 38.7798 44.9373 38.7726 44.9406 38.7655C44.9478 38.7498 44.9543 38.7336 44.9604 38.7172C44.9629 38.7104 44.9656 38.7035 44.9679 38.6966C44.9736 38.6794 44.9785 38.6618 44.9829 38.6441C44.9846 38.6375 44.9864 38.6311 44.9879 38.6244C44.9921 38.6057 44.9951 38.5865 44.9976 38.5673C44.9983 38.5614 44.9997 38.5557 45.0003 38.5498C45.003 38.5248 45.0045 38.4995 45.0045 38.4738C45.0045 38.4481 45.0029 38.4227 45.0003 38.3977Z" fill="white"/>
<path d="M30.5528 24.7465C30.2255 24.4223 29.8789 24.1247 29.5163 23.8537L30.5181 22.6395C30.7652 22.34 30.7228 21.8968 30.4231 21.6496C30.1237 21.4024 29.6804 21.4449 29.4333 21.7446L28.3227 23.0909C27.1248 22.444 25.8002 22.0568 24.4188 21.9587V21.3248H25.8331C26.5519 21.3248 27.1367 20.74 27.1367 20.0211V18.9097C27.1367 18.1908 26.5519 17.606 25.8331 17.606H21.5417C20.8229 17.606 20.2381 18.1908 20.2381 18.9097V20.0211C20.2381 20.74 20.8229 21.3248 21.5417 21.3248H23.0127V21.9593C21.6152 22.0587 20.2768 22.4529 19.0696 23.112L17.9416 21.7446C17.6943 21.445 17.2513 21.4025 16.9517 21.6496C16.6522 21.8968 16.6097 22.3399 16.8568 22.6395L17.88 23.8797C17.5055 24.1621 17.1488 24.4733 16.8128 24.8125C14.9865 26.6564 13.9876 29.101 14.0001 31.6962C14.0126 34.2914 15.0349 36.7262 16.8787 38.5525C18.7112 40.3674 21.1369 41.3652 23.7142 41.3652C23.7303 41.3652 23.7465 41.3652 23.7624 41.3651C26.3576 41.3526 28.7925 40.3303 30.6187 38.4865C32.4451 36.6426 33.4439 34.198 33.4314 31.6028C33.4189 29.0077 32.3966 26.5727 30.5528 24.7465ZM21.6443 19.9185V19.0123H25.7306V19.9185H21.6443ZM29.6197 37.4968C28.0578 39.0737 25.9753 39.9481 23.7557 39.9587C23.742 39.9588 23.7284 39.9588 23.7146 39.9588C21.5105 39.9587 19.4356 39.1054 17.8684 37.5533C16.2914 35.9914 15.4171 33.9089 15.4064 31.6893C15.3958 29.4698 16.25 27.379 17.8119 25.802C19.3738 24.225 21.4563 23.3506 23.6759 23.34C23.6896 23.34 23.7031 23.34 23.7169 23.34C25.9212 23.34 27.996 24.1934 29.5633 25.7456C31.1402 27.3075 32.0146 29.3899 32.0252 31.6095C32.0358 33.829 31.1816 35.9198 29.6197 37.4968Z" fill="white"/>
<path d="M23.7152 24.1904C23.7032 24.1904 23.691 24.1904 23.6789 24.1905C21.6866 24.2002 19.8172 24.9851 18.4152 26.4005C17.0132 27.8161 16.2463 29.6929 16.2559 31.6852C16.2655 33.6775 17.0504 35.5468 18.4658 36.9489C19.8727 38.3422 21.735 39.1082 23.7137 39.1082C23.726 39.1082 23.7383 39.1082 23.7506 39.1081C25.7429 39.0985 27.6123 38.3137 29.0143 36.8981C30.4163 35.4826 31.1832 33.6058 31.1735 31.6136C31.1538 27.5129 27.8116 24.1904 23.7152 24.1904ZM28.0152 35.9085C26.8774 37.0572 25.3606 37.6941 23.7439 37.7019C23.7338 37.702 23.724 37.702 23.7139 37.702C22.1085 37.7019 20.5971 37.0803 19.4555 35.9498C18.3069 34.812 17.67 33.2951 17.6623 31.6784C17.6545 30.0617 18.2768 28.5388 19.4145 27.3901C20.5522 26.2414 22.0691 25.6046 23.6858 25.5968C23.6958 25.5967 23.7052 25.5967 23.7152 25.5967C27.0389 25.5967 29.7514 28.2929 29.7674 31.6203C29.7752 33.2369 29.1529 34.7599 28.0152 35.9085Z" fill="white"/>
<path d="M27.1783 47.5906C26.6169 47.3778 26.0032 47.4157 25.4498 47.6973C24.9191 47.9673 24.5068 48.4327 24.2889 49.0077C23.8301 50.2189 24.3797 51.5538 25.5138 51.9835C25.7536 52.0744 26.0028 52.1195 26.2528 52.1195C26.5883 52.1195 26.9253 52.0382 27.2423 51.8768C27.773 51.6068 28.1854 51.1415 28.4032 50.5664C28.8621 49.3554 28.3126 48.0203 27.1783 47.5906ZM27.0882 50.0682C26.9946 50.3153 26.8229 50.5125 26.6047 50.6235C26.4091 50.7231 26.1986 50.7391 26.0122 50.6684C25.6031 50.5134 25.42 49.9918 25.604 49.5059C25.6976 49.2588 25.8693 49.0616 26.0875 48.9506C26.2028 48.8919 26.3234 48.8623 26.441 48.8623C26.523 48.8623 26.6035 48.8767 26.6801 48.9057C27.0892 49.0607 27.2723 49.5822 27.0882 50.0682Z" fill="white"/>
<path d="M54.268 47.5908C53.134 47.1613 51.8376 47.7967 51.3788 49.0078C50.9199 50.2189 51.4695 51.5539 52.6037 51.9836C52.8434 52.0744 53.0926 52.1195 53.3426 52.1195C53.6782 52.1195 54.0151 52.0383 54.3322 51.8769C54.8629 51.6069 55.2752 51.1415 55.4931 50.5665C55.9519 49.3556 55.4023 48.0205 54.268 47.5908ZM54.1779 50.0684C54.0844 50.3155 53.9126 50.5127 53.6945 50.6237C53.4987 50.7232 53.2884 50.7393 53.102 50.6686C52.6928 50.5136 52.5098 49.992 52.6938 49.5061C52.8427 49.1133 53.1865 48.862 53.529 48.862C53.6102 48.862 53.6913 48.8761 53.7698 48.9059C54.179 49.0609 54.3621 49.5824 54.1779 50.0684Z" fill="white"/>
<path d="M61.5511 37.659C61.551 37.6589 61.551 37.6589 61.5509 37.6588C60.5211 36.4925 59.4579 35.2766 58.3008 33.9417C57.9563 33.5441 57.4423 33.3156 56.8906 33.3148L50.9805 33.3069C51.16 32.1951 51.3336 31.0884 51.493 30.0044C51.5575 29.5528 51.4297 29.1039 51.1425 28.7726C50.8548 28.4409 50.4277 28.2506 49.9705 28.2504C45.0491 28.2489 42.423 28.2472 38.2529 28.2445L35.598 28.2427C35.5978 28.2427 35.5977 28.2427 35.5975 28.2427C35.2094 28.2427 34.8947 28.5571 34.8944 28.9453C34.8941 29.3337 35.2089 29.6486 35.5971 29.6489L38.252 29.6507C42.4223 29.6533 45.0484 29.6551 49.9701 29.6566C50.0201 29.6566 50.0592 29.6699 50.08 29.6938C50.1062 29.724 50.1058 29.7714 50.1014 29.8028C49.7601 32.1235 49.354 34.5567 48.9567 36.924C48.3772 40.3408 47.7846 43.8454 47.3374 47.2631C47.3355 47.2768 47.3335 47.2908 47.3318 47.3046C47.1141 47.3045 46.8962 47.3045 46.6781 47.3044C46.4021 47.3043 46.1263 47.3042 45.85 47.304C45.4954 47.3038 45.1405 47.3035 44.7855 47.3032C44.5672 47.303 44.349 47.3028 44.1306 47.3026C43.7182 47.3021 43.3057 47.3017 42.8932 47.3011C42.7308 47.3009 42.5685 47.3007 42.4061 47.3005C41.9256 47.2998 41.4453 47.2991 40.9653 47.2982C40.8673 47.298 40.7692 47.2979 40.6712 47.2977C39.5422 47.2959 38.4156 47.2936 37.2942 47.2913C37.2465 47.2912 37.1985 47.2911 37.1509 47.291C35.9805 47.2886 34.8161 47.2859 33.6615 47.2834L30.1016 47.2756C29.7517 46.65 29.2635 46.1386 28.672 45.7757C28.6532 45.7642 28.6345 45.7525 28.6155 45.7412C28.5838 45.7225 28.5518 45.7045 28.5196 45.6866C28.492 45.6713 28.4644 45.6563 28.4365 45.6416C28.4086 45.6271 28.3808 45.6126 28.3525 45.5987C28.3166 45.5809 28.2803 45.5639 28.2437 45.5472C28.2212 45.5369 28.199 45.5263 28.1763 45.5164C28.1158 45.4901 28.0548 45.4647 27.9928 45.4413C27.9293 45.4172 27.8652 45.395 27.8007 45.3743C27.7655 45.3629 27.73 45.3531 27.6944 45.3427C27.6667 45.3346 27.6391 45.326 27.6113 45.3186C27.5623 45.3054 27.5132 45.2938 27.4639 45.2826C27.4509 45.2796 27.4378 45.2763 27.4248 45.2735C27.3657 45.2606 27.3065 45.2493 27.247 45.2391C27.2452 45.2388 27.2434 45.2384 27.2415 45.2381C26.6043 45.1297 25.9493 45.1771 25.316 45.3785C25.3143 45.3791 25.3125 45.3795 25.3108 45.3801C25.2603 45.3962 25.21 45.4137 25.1598 45.4318C25.1404 45.4388 25.1209 45.4456 25.1015 45.4529C25.0624 45.4676 25.0234 45.4832 24.9845 45.4991C24.968 45.5057 24.9514 45.5117 24.935 45.5186C24.919 45.5253 24.9033 45.5328 24.8874 45.5396C24.8637 45.55 24.8401 45.5604 24.8166 45.5711C24.7695 45.5925 24.7229 45.6149 24.6766 45.638C24.6656 45.6434 24.6545 45.6482 24.6436 45.6538C24.6407 45.6553 24.6379 45.657 24.6351 45.6584C24.5777 45.6878 24.5209 45.7184 24.4647 45.7503C24.4412 45.7636 24.4182 45.7777 24.395 45.7914C24.3638 45.8098 24.3326 45.8283 24.3018 45.8475C24.2702 45.8671 24.2391 45.8872 24.208 45.9075C24.1895 45.9196 24.1712 45.932 24.1529 45.9444C23.6386 46.2917 23.1956 46.7397 22.8473 47.265L22.1041 47.2642C21.5499 47.2634 20.9956 47.2627 20.4415 47.2623C20.5717 46.4591 20.7878 45.1245 21.0438 43.5425C21.1059 43.1591 20.8454 42.7981 20.4621 42.7361C20.0774 42.673 19.7177 42.9345 19.6556 43.3178C19.2345 45.9201 18.9212 47.8526 18.9212 47.8526C18.9209 47.8542 18.9209 47.8559 18.9206 47.8577C18.9204 47.8595 18.9199 47.8612 18.9196 47.863L18.7791 48.8194C18.7025 49.3406 18.856 49.8683 19.2001 50.2668C19.5442 50.6652 20.0434 50.8939 20.5699 50.894L22.0861 50.8947C22.1403 51.1878 22.2221 51.4757 22.3322 51.7546C22.7755 52.8777 23.6163 53.7223 24.6999 54.1329C25.1626 54.3082 25.6395 54.3913 26.1129 54.3913C27.9025 54.3913 29.6403 53.2021 30.3583 51.3071C30.409 51.1733 30.4532 51.0381 30.4921 50.9022C35.4478 50.9078 40.9548 50.9152 45.7895 50.9216L47.6925 50.9241C47.6931 50.9241 47.6936 50.9242 47.6943 50.9242C48.1469 50.9234 48.6013 50.9248 49.0548 50.9256L49.1806 50.9258C49.2348 51.2081 49.3145 51.4856 49.4207 51.7546C49.864 52.8777 50.7048 53.7223 51.7884 54.1329C52.2488 54.3072 52.7283 54.394 53.2103 54.394C53.8623 54.394 54.5186 54.2352 55.1376 53.9204C56.1913 53.3843 57.0115 52.4562 57.4469 51.3071C57.4934 51.1842 57.534 51.0602 57.5706 50.9356H57.6086C57.888 50.9361 58.1676 50.9366 58.447 50.9366C59.4421 50.9364 60.3396 50.1743 60.4903 49.2008C61.01 45.8211 61.5533 42.2592 61.9823 39.1254C62.0552 38.5869 61.8981 38.0524 61.5511 37.659ZM22.1957 48.6872C22.1877 48.7153 22.1808 48.7436 22.1734 48.7718C22.1624 48.8133 22.1514 48.8547 22.1415 48.8965C22.1332 48.9318 22.1259 48.9672 22.1183 49.0026C22.1111 49.0359 22.1038 49.0691 22.0975 49.1024C22.0888 49.1468 22.0814 49.1912 22.074 49.2356C22.0703 49.2585 22.0663 49.2813 22.063 49.3042C22.0547 49.3588 22.0477 49.4135 22.0413 49.4681C22.0405 49.4749 22.0393 49.4816 22.0386 49.4884L20.5703 49.4876C20.4092 49.4876 20.3095 49.3998 20.2644 49.3477C20.2192 49.2952 20.1467 49.1835 20.1701 49.0237L20.2224 48.6686C20.8489 48.669 21.4755 48.6694 22.1021 48.6702L22.2 48.6703C22.1985 48.6761 22.1973 48.6817 22.1957 48.6872ZM29.2339 50.0889C29.2332 50.0927 29.2332 50.0966 29.2327 50.1005C29.194 50.3388 29.1314 50.5762 29.0432 50.809C28.41 52.48 26.6853 53.3815 25.198 52.8179C24.4894 52.5495 23.9362 51.9885 23.6401 51.2384C23.5084 50.9045 23.4344 50.5511 23.4175 50.1911C23.4175 50.1822 23.4182 50.1734 23.4178 50.1646C23.4109 49.9871 23.4175 49.8101 23.4374 49.6345C23.4375 49.6333 23.4377 49.6322 23.4378 49.6312C23.4438 49.5787 23.4513 49.5264 23.4597 49.4741C23.4614 49.4635 23.4631 49.4529 23.465 49.4423C23.4723 49.3994 23.4806 49.3567 23.4895 49.3139C23.493 49.2975 23.4962 49.281 23.5 49.2646C23.5084 49.2268 23.5179 49.1892 23.5275 49.1516C23.5325 49.1326 23.537 49.1135 23.5422 49.0944C23.5525 49.0571 23.5639 49.0198 23.5754 48.9827C23.581 48.9646 23.5861 48.9464 23.592 48.9284C23.6098 48.8739 23.6288 48.8195 23.6493 48.7655C23.6497 48.7646 23.65 48.7637 23.6503 48.7629C23.677 48.6928 23.7064 48.6237 23.7371 48.5555C23.7437 48.541 23.7503 48.5265 23.7569 48.5121C23.7894 48.4426 23.8234 48.374 23.8599 48.3073C23.8627 48.3023 23.8657 48.2973 23.8685 48.2922C24.52 47.1136 25.7593 46.461 26.927 46.6147C26.9501 46.6179 26.9734 46.6203 26.9965 46.6241C27.0262 46.6288 27.0556 46.6346 27.085 46.6405C27.1419 46.6519 27.1985 46.6642 27.2546 46.6794C27.268 46.6829 27.2814 46.6872 27.2948 46.6911C27.3619 46.7105 27.4286 46.7316 27.4945 46.7565C27.5376 46.7728 27.58 46.7904 27.622 46.8088C27.6482 46.8205 27.6739 46.8331 27.6998 46.8456C27.7146 46.8527 27.7297 46.8594 27.7444 46.8668C27.7798 46.8847 27.8147 46.9037 27.8493 46.9232C27.8535 46.9256 27.8579 46.9278 27.8621 46.9301C28.3683 47.2201 28.7713 47.6791 29.0179 48.2548C29.2595 48.8193 29.3342 49.4535 29.2339 50.0889ZM47.0636 49.5171L45.7915 49.5153C41.0191 49.509 35.59 49.5016 30.6843 49.4962C30.6817 49.2227 30.6563 48.9507 30.607 48.6831L33.6583 48.6897C35.7385 48.6943 37.8506 48.699 39.9725 48.7029C40.1426 48.7031 40.3126 48.7035 40.4829 48.7038C40.8107 48.7044 41.1387 48.7048 41.4669 48.7054C41.7436 48.7059 42.0203 48.7062 42.2971 48.7067C42.5521 48.7071 42.807 48.7074 43.0621 48.7077C43.4137 48.7082 43.765 48.7087 44.1164 48.709C44.325 48.7091 44.5334 48.7093 44.742 48.7095C45.1312 48.7099 45.52 48.7102 45.9087 48.7105C46.096 48.7106 46.2831 48.7106 46.4703 48.7107C46.699 48.7108 46.928 48.711 47.1563 48.7111C47.1243 48.9805 47.0934 49.2491 47.0636 49.5171ZM56.3181 50.1167C56.3176 50.1195 56.3176 50.1223 56.3171 50.1251C56.2781 50.3551 56.2169 50.5841 56.1318 50.809C55.8207 51.6302 55.2411 52.2901 54.4999 52.6671C53.7811 53.0327 52.9952 53.0863 52.2866 52.8178C51.5781 52.5494 51.0249 51.9884 50.7288 51.2383C50.5989 50.909 50.5254 50.5606 50.5072 50.2058C50.5071 50.2007 50.5075 50.1956 50.5073 50.1906C50.4989 50.0127 50.5045 49.8352 50.5232 49.6587C50.5241 49.6498 50.5254 49.641 50.5264 49.6321C50.5316 49.5865 50.5378 49.5409 50.545 49.4954C50.5478 49.4776 50.5507 49.4599 50.5537 49.4422C50.56 49.4052 50.567 49.3683 50.5745 49.3315C50.579 49.3095 50.5834 49.2877 50.5883 49.2657C50.5958 49.2319 50.6042 49.1982 50.6127 49.1646C50.6185 49.1418 50.6241 49.1189 50.6304 49.0961C50.6401 49.0606 50.6509 49.0252 50.6619 48.9897C50.668 48.9698 50.6737 48.9497 50.6801 48.9298C50.6981 48.8748 50.7172 48.82 50.7379 48.7653C51.049 47.9441 51.6286 47.2841 52.3698 46.9071C52.4186 46.8822 52.468 46.8591 52.5174 46.8371C52.5333 46.8299 52.5494 46.8236 52.5655 46.8168C52.5992 46.8025 52.633 46.7885 52.6669 46.7756C52.6858 46.7683 52.7048 46.7617 52.7237 46.7548C52.7553 46.7435 52.7869 46.7326 52.8187 46.7224C52.8383 46.7161 52.858 46.71 52.8776 46.7042C52.9094 46.6947 52.9413 46.686 52.9732 46.6777C52.9924 46.6727 53.0115 46.6676 53.0307 46.6631C53.0649 46.6549 53.0991 46.6478 53.1333 46.641C53.1501 46.6376 53.1669 46.634 53.1836 46.6309C53.2287 46.6228 53.2739 46.6159 53.3191 46.6101C53.3249 46.6093 53.3306 46.6082 53.3365 46.6076C53.3878 46.6013 53.4392 46.5967 53.4906 46.5934C53.5045 46.5926 53.5183 46.5924 53.5321 46.5917C53.5693 46.5899 53.6065 46.5885 53.6438 46.5882C53.6567 46.5881 53.6696 46.5886 53.6827 46.5887C53.7524 46.5893 53.822 46.5919 53.8913 46.5981C53.8931 46.5983 53.8951 46.5983 53.897 46.5985C53.9671 46.6048 54.0368 46.6148 54.1061 46.6269C54.1187 46.629 54.1312 46.6311 54.1437 46.6334C54.2107 46.6461 54.2772 46.6613 54.3433 46.6793C54.3554 46.6826 54.3675 46.6863 54.3796 46.6898C54.448 46.7095 54.516 46.731 54.5831 46.7564C54.6241 46.772 54.6644 46.7887 54.7044 46.8061C54.7288 46.8169 54.7528 46.8284 54.7768 46.84C54.7902 46.8463 54.8037 46.8525 54.817 46.8591C55.9226 47.4116 56.5471 48.7376 56.3181 50.1167ZM60.5889 38.9357C60.1614 42.0581 59.6192 45.6133 59.1005 48.9865C59.0564 49.2711 58.7449 49.5304 58.447 49.5304C58.2225 49.5304 57.998 49.5301 57.7735 49.5297C57.772 48.9441 57.664 48.3648 57.4489 47.8196C57.0522 46.8146 56.3367 46.0337 55.4144 45.5862C55.3873 45.573 55.36 45.5602 55.3326 45.5475C55.3072 45.5359 55.2819 45.5241 55.2562 45.513C55.1985 45.488 55.1404 45.4638 55.0812 45.4414C54.1331 45.0821 53.104 45.095 52.1405 45.4707C52.0029 45.5244 51.8665 45.5855 51.732 45.6539C50.6783 46.19 49.8581 47.1181 49.4227 48.2673C49.3884 48.3579 49.3577 48.4492 49.3288 48.5408C49.3204 48.5674 49.3125 48.594 49.3045 48.6206C49.2824 48.6949 49.2621 48.7693 49.2435 48.8441C49.2386 48.8637 49.2331 48.8832 49.2284 48.9029C49.2066 48.9956 49.1877 49.0886 49.1713 49.1816C49.1679 49.2011 49.165 49.2207 49.1619 49.2403C49.1479 49.3256 49.1361 49.4109 49.1266 49.4963C49.1258 49.5041 49.1242 49.5118 49.1234 49.5197L49.057 49.5196C48.8645 49.5192 48.6719 49.519 48.4793 49.5188C48.5339 49.0417 48.5915 48.5603 48.6237 48.2921C48.6353 48.1991 48.6463 48.1064 48.6581 48.0132C49.0938 44.6048 49.6967 41.0108 50.2804 37.5336C50.2999 37.4173 50.3196 37.3001 50.3391 37.1835C50.3457 37.1444 50.3524 37.1051 50.359 37.0661C50.4932 36.2747 50.6263 35.4896 50.7564 34.7132L56.8886 34.7215C57.035 34.7216 57.159 34.7719 57.238 34.8631C58.3979 36.2012 59.4638 37.4201 60.4965 38.5897C60.5744 38.6776 60.6071 38.8009 60.5889 38.9357Z" fill="white"/>
<path d="M59.3133 38.9526C58.466 37.9869 57.6273 37.0243 56.8209 36.0913C56.6002 35.8362 56.2737 35.6896 55.9249 35.6892L52.5772 35.6846C52.5768 35.6846 52.5762 35.6846 52.5757 35.6846C51.9344 35.6846 51.3522 36.1773 51.25 36.8068L51.1491 37.4268C50.921 38.8278 50.6851 40.2767 50.4601 41.7035C50.4601 41.7036 50.46 41.7037 50.46 41.7039C50.4065 42.0449 50.5008 42.3869 50.7188 42.6421C50.9402 42.9013 51.2705 43.0501 51.625 43.0503L57.9656 43.055C57.9659 43.055 57.9662 43.055 57.9665 43.055C58.6184 43.055 59.2014 42.5567 59.2938 41.9202C59.4117 41.1081 59.4704 40.7023 59.5865 39.8906C59.6354 39.5483 59.5359 39.2064 59.3133 38.9526ZM57.9123 41.6488L51.8932 41.6443C52.1044 40.3109 52.3241 38.9611 52.5371 37.6528L52.6286 37.0909L55.83 37.0953C56.592 37.9764 57.3818 38.883 58.1799 39.7931C58.0766 40.5148 58.0185 40.917 57.9123 41.6488Z" fill="white"/>
</g>
<defs>
<clipPath id="clip0_2_892">
<rect width="48" height="48" fill="white" transform="translate(14 12)"/>
</clipPath>
</defs>
</svg>
